<?xml version="1.0" standalone="no"?>
<!DOCTYPE svg PUBLIC "-//W3C//DTD SVG 1.1//EN" "http://www.w3.org/Graphics/SVG/1.1/DTD/svg11.dtd" >
<svg xmlns="http://www.w3.org/2000/svg" xmlns:xlink="http://www.w3.org/1999/xlink" version="1.1" viewBox="-10 0 660 512">
  <g transform="matrix(1 0 0 -1 0 448)">
   <path fill="currentColor"
d="M336 448q-20 -1 -34 -14v0q-13 -14 -14 -34v-92l71 -119q4 3 9 3h32q15 -1 16 -16v-32q-1 -15 -16 -16h-3l73 -122q19 -34 2 -68l-2 -2h122q20 1 34 14q13 14 14 34v224q-1 20 -14 34q-14 13 -34 14h-24v72q-2 22 -24 24q-22 -2 -24 -24v-72h-40v144q-1 20 -14 34
q-14 13 -34 14h-96v0zM368 384h32q15 -1 16 -16v-32q-1 -15 -16 -16h-32q-15 1 -16 16v32q1 15 16 16v0zM352 272q1 15 16 16h32q15 -1 16 -16v-32q-1 -15 -16 -16h-32q-15 1 -16 16v32v0zM512 176q1 15 16 16h32q15 -1 16 -16v-32q-1 -15 -16 -16h-32q-15 1 -16 16v32v0z
M528 96h32q15 -1 16 -16v-32q-1 -15 -16 -16h-32q-15 1 -16 16v32q1 15 16 16v0z" />
  </g>

</svg>
